<svg width="390" height="44" viewBox="0 0 390 44" fill="none" xmlns="http://www.w3.org/2000/svg">
<path d="M368.687 17.9258C363.087 17.9258 357.496 17.9258 351.896 17.9486C351.743 17.9486 351.59 18.3179 351.318 18.6553L390 21.0168C390 21.1308 390 21.2448 390 21.3587H375.086C374.797 21.8876 374.491 22.4666 373.973 23.4194L384.434 24.5318L384.383 24.8692C382.101 24.7946 379.812 24.8068 377.534 24.9056C375.184 25.06 372.899 25.4268 370.778 25.9907C369.733 26.2916 369.733 27.6273 368.687 27.9328C366.028 28.7169 363.045 29.1819 359.603 29.8931L369.163 30.267L369.078 30.8004L350.341 30.2761L350.213 31.0329L370.965 31.776C363.266 33.0069 356.187 31.1742 349.771 32.4599L349.907 33.0753H373.378C365.577 35.1907 362.424 35.2317 361.575 34.1512L339.48 35.5189L343.313 37.0462C341.375 37.6525 339.812 38.4549 338.027 38.6373C330.736 39.3895 323.36 39.8956 316.052 40.6022C312.16 40.9806 308.965 40.9851 305.514 39.4214C303.857 38.6692 299.889 39.1068 297.102 39.3941C285.54 40.5701 273.747 40.9531 262.005 40.5338C261.156 40.5019 260.255 41.1265 259.38 41.4456L259.966 42.0565C245.52 42.4167 230.997 42.9683 216.5 43.0777C202.223 43.1871 187.921 42.8452 173.798 42.9409C171.979 43.0914 170.101 43.4652 168.351 43.3421C165.742 43.1598 163.252 42.3437 160.703 42.3164C157.363 42.2799 154.006 42.7723 150.437 43.0276C149.231 41.555 146.469 42.4759 144.149 42.6674C140.75 42.9455 137.351 43.6932 133.951 43.6658C128.657 43.6157 123.389 42.9045 118.086 42.8042C112.307 42.6993 106.002 42.2434 100.886 43.292C96.4505 44.2038 92.482 43.9849 88.3606 43.9576C83.5933 43.9211 78.5286 43.8391 74.1437 42.982C66.5466 41.4912 58.924 41.8696 51.1995 41.8605C44.1378 41.8605 37.0591 41.9425 30.0314 41.6508C26.5133 41.5049 23.0971 40.6022 19.834 40.0734L27.1846 38.2087H11.2851V37.844L21.0746 37.5705L11.8715 36.3988V35.8836L19.5195 34.516C18.4318 33.6771 17.82 32.6924 16.5538 32.3459C13.3076 31.4341 13.6645 30.4083 16.4603 28.7762C12.3559 29.109 9.22865 29.1774 6.34789 29.6606C4.12145 30.0299 2.3624 29.9251 2.09896 28.7762C1.91201 28.0513 3.1357 26.6791 4.22343 26.4967C7.96248 25.9086 11.931 25.7171 15.8145 25.3889C16.1993 25.3951 16.5818 25.3553 16.9345 25.2725C17.2872 25.1898 17.6013 25.066 17.854 24.9102L4.52085 25.3661L4.21493 24.7552L15.3386 22.8131L13.639 22.5669C14.0281 22.2887 14.3802 21.9962 14.6928 21.6915C13.6815 21.2357 11.9055 20.3512 11.5741 20.4834C8.38737 21.7645 6.77278 19.868 4.26592 19.9774L4.21493 19.2479L9.26265 18.4547L2.65133 15.0127V12.6009L0 11.7256C4.68231 11.1968 8.99072 10.8868 13.0612 10.1756C14.8117 9.87012 16.0524 8.73037 17.531 7.97814C18.2024 7.63166 18.9417 6.98429 19.562 7.0162C23.5645 7.20768 26.1819 5.55277 29.462 5.01937C37.314 3.73829 45.472 2.9815 53.5449 2.10618C55.5929 1.88279 57.7938 2.14721 59.8928 1.95573C63.2494 1.64572 66.5126 1.01203 69.8778 0.756726C74.5856 0.396567 79.3783 -0.00918109 84.0946 0.0956754C89.5248 0.214209 94.5385 1.31748 100.461 0.337301C105.356 -0.469638 111.203 0.419357 116.607 0.460388C120.414 0.487742 124.255 0.287148 128.045 0.319061C130.518 0.341856 132.974 0.651868 135.447 0.733929C141.141 0.920848 146.834 1.04394 152.579 1.49072L146.63 1.82352L146.783 2.70797C156.258 1.96941 166.039 3.96625 175.463 1.37675L173.262 2.26575C173.908 2.42987 174.427 2.63047 174.537 2.58032C178.633 0.711136 183.179 1.77793 187.615 1.92838C188.975 1.97397 190.386 1.60013 192.357 1.34483L193.428 2.47546C193.827 1.60469 194.159 0.902608 194.482 0.195966L195.901 0.939082L195.153 1.39498C195.894 1.60113 196.696 1.73687 197.524 1.79617C200.923 1.70955 204.407 1.26277 207.721 1.44969C214.044 1.79617 220.29 2.56664 226.603 3.0043C229.289 3.19122 232.076 2.91768 234.804 2.97239C243.123 3.14107 251.443 3.42828 259.762 3.54682C266.875 3.65623 273.996 3.61064 281.117 3.61976C286.269 3.57239 291.421 3.68351 296.549 3.95257L291.213 4.47685L291.289 4.93274L361.872 6.60589L361.932 6.43265L358.116 6.88855L360.563 7.28518V7.74108H346.041C345.998 8.03285 345.964 8.32463 345.922 8.61641L358.201 10.2622H332.13C332.079 10.5403 332.019 10.8184 331.968 11.0965L370.914 13.7863H348.896C349.394 14.0481 349.798 14.3573 350.086 14.6981C351.122 16.4898 353.714 16.8317 356.68 16.8454C360.691 16.8454 364.693 16.8454 368.704 16.8454C368.696 17.2146 368.696 17.5702 368.687 17.9258ZM337.823 26.6563L337.993 28.024L355.635 26.7885L355.482 25.9086L337.823 26.6563Z" fill="#EC1223"/>
</svg>
