<svg width="262" height="44" viewBox="0 0 262 44" fill="none" xmlns="http://www.w3.org/2000/svg">
<path d="M247.682 17.9258C243.92 17.9258 240.164 17.9258 236.402 17.9486C236.299 17.9486 236.196 18.3179 236.013 18.6553L262 21.0168C262 21.1308 262 21.2448 262 21.3587H251.981C251.787 21.8876 251.581 22.4666 251.233 23.4194L258.261 24.5318L258.226 24.8692C256.694 24.7946 255.156 24.8068 253.625 24.9056C252.046 25.06 250.512 25.4268 249.087 25.9907C248.384 26.2916 248.384 27.6273 247.682 27.9328C245.895 28.7169 243.892 29.1819 241.58 29.8931L248.002 30.267L247.945 30.8004L235.357 30.2761L235.271 31.0329L249.212 31.776C244.04 33.0069 239.285 31.1742 234.975 32.4599L235.066 33.0753H250.834C245.593 35.1907 243.475 35.2317 242.904 34.1512L228.061 35.5189L230.636 37.0462C229.334 37.6525 228.284 38.4549 227.085 38.6373C222.187 39.3895 217.232 39.8956 212.322 40.6022C209.707 40.9806 207.561 40.9851 205.243 39.4214C204.13 38.6692 201.464 39.1068 199.591 39.3941C191.824 40.5701 183.902 40.9531 176.014 40.5338C175.443 40.5019 174.838 41.1265 174.25 41.4456L174.644 42.0565C164.939 42.4167 155.182 42.9683 145.443 43.0777C135.852 43.1871 126.245 42.8452 116.757 42.9409C115.535 43.0914 114.273 43.4652 113.097 43.3421C111.345 43.1598 109.672 42.3437 107.959 42.3164C105.716 42.2799 103.461 42.7723 101.063 43.0276C100.252 41.555 98.397 42.4759 96.8385 42.6674C94.555 42.9455 92.2715 43.6932 89.9879 43.6658C86.4313 43.6157 82.8919 42.9045 79.3296 42.8042C75.4476 42.6993 71.2117 42.2434 67.775 43.292C64.795 44.2038 62.129 43.9849 59.3602 43.9576C56.1575 43.9211 52.7551 43.8391 49.8093 42.982C44.7057 41.4912 39.5849 41.8696 34.3956 41.8605C29.6515 41.8605 24.8961 41.9425 20.1749 41.6508C17.8115 41.5049 15.5165 40.6022 13.3244 40.0733L18.2625 38.2087H7.5813V37.844L14.1578 37.5705L7.9752 36.3988V35.8836L13.1131 34.516C12.3824 33.6771 11.9714 32.6924 11.1208 32.3459C8.93999 31.4341 9.17976 30.4083 11.058 28.7762C8.3006 29.109 6.19976 29.1774 4.26448 29.6606C2.76877 30.0299 1.58705 29.9251 1.41007 28.7762C1.28448 28.0513 2.10655 26.6791 2.83728 26.4967C5.34915 25.9086 8.01517 25.7171 10.6241 25.3889C10.8826 25.3951 11.1396 25.3553 11.3765 25.2725C11.6135 25.1898 11.8244 25.066 11.9942 24.9102L3.03709 25.3661L2.83157 24.7552L10.3044 22.8131L9.16263 22.5669C9.42399 22.2887 9.66053 21.9962 9.87053 21.6915C9.19118 21.2357 7.99804 20.3512 7.77539 20.4834C5.63459 21.7645 4.54992 19.868 2.86582 19.9774L2.83157 19.2479L6.2226 18.4547L1.78115 15.0127V12.6009L0 11.7256C3.14555 11.1968 6.03992 10.8868 8.77444 10.1756C9.95045 9.87012 10.7839 8.73037 11.7773 7.97814C12.2283 7.63166 12.7249 6.98429 13.1417 7.0162C15.8305 7.20768 17.5888 5.55277 19.7924 5.01937C25.0674 3.73829 30.5478 2.9815 35.9712 2.10618C37.347 1.88279 38.8256 2.14721 40.2357 1.95573C42.4906 1.64572 44.6828 1.01203 46.9435 0.756726C50.1062 0.396567 53.326 -0.00918109 56.4944 0.0956754C60.1423 0.214209 63.5105 1.31748 67.4895 0.337301C70.7778 -0.469638 74.7054 0.419357 78.3363 0.460388C80.8938 0.487742 83.4742 0.287148 86.0203 0.319061C87.6816 0.341856 89.3314 0.651868 90.9927 0.733929C94.8176 0.920848 98.6425 1.04394 102.502 1.49072L98.5055 1.82352L98.6082 2.70797C104.974 1.96941 111.544 3.96625 117.875 1.37675L116.397 2.26575C116.831 2.42987 117.179 2.63047 117.253 2.58032C120.005 0.711136 123.059 1.77793 126.039 1.92838C126.952 1.97397 127.9 1.60013 129.225 1.34483L129.944 2.47546C130.212 1.60469 130.435 0.902608 130.652 0.195966L131.605 0.939082L131.103 1.39498C131.601 1.60113 132.14 1.73687 132.696 1.79617C134.979 1.70955 137.32 1.26277 139.546 1.44969C143.793 1.79617 147.989 2.56664 152.231 3.0043C154.035 3.19122 155.908 2.91768 157.74 2.97239C163.329 3.14107 168.918 3.42828 174.507 3.54682C179.285 3.65623 184.069 3.61064 188.853 3.61976C192.314 3.57239 195.775 3.68351 199.22 3.95257L195.635 4.47685L195.686 4.93274L243.104 6.60589L243.144 6.43265L240.581 6.88855L242.225 7.28518V7.74108H232.468C232.44 8.03285 232.417 8.32463 232.388 8.61641L240.638 10.2622H223.123C223.089 10.5403 223.049 10.8184 223.015 11.0965L249.178 13.7863H234.386C234.721 14.0481 234.992 14.3573 235.186 14.6981C235.882 16.4898 237.623 16.8317 239.616 16.8454C242.31 16.8454 244.999 16.8454 247.694 16.8454C247.688 17.2146 247.688 17.5702 247.682 17.9258ZM226.948 26.6563L227.062 28.024L238.914 26.7885L238.811 25.9086L226.948 26.6563Z" fill="#EC1223"/>
</svg>
